<?xml version="1.0" encoding="UTF-8"?>
<svg width="20px" height="18px" viewBox="0 0 20 18" version="1.1" xmlns="http://www.w3.org/2000/svg" xmlns:xlink="http://www.w3.org/1999/xlink">
    <!-- Generator: Sketch 64 (93537) - https://sketch.com -->
    <title>2</title>
    <desc>Created with Sketch.</desc>
    <g id="基础" stroke="none" stroke-width="1" fill="none" fill-rule="evenodd">
        <g id="按钮" transform="translate(-42.000000, -192.000000)">
            <g id="编组">
                <g id="Group-3-Copy" transform="translate(0.000000, 174.000000)">
                    <g id="2" transform="translate(40.000000, 15.000000)">
                        <rect id="Rectangle" x="0" y="0" width="24" height="24"></rect>
                        <g id="Group-4" transform="translate(12.000000, 12.000000) rotate(-90.000000) translate(-12.000000, -12.000000) translate(3.000000, 2.000000)">
                            <path d="M0,0 L13,0 C15.7614237,-5.07265313e-16 18,2.23857625 18,5 C18,7.76142375 15.7614237,10 13,10 L0,10 L0,10 L0,0 Z" id="Rectangle" fill="#B3CFFF"></path>
                            <path d="M7,4 L14,4 C14.5522847,4 15,4.44771525 15,5 C15,5.55228475 14.5522847,6 14,6 L7,6 L7,6 L7,4 Z" id="Rectangle" fill="#0062FE"></path>
                            <path d="M0,10 L13,10 C15.7614237,10 18,12.2385763 18,15 C18,17.7614237 15.7614237,20 13,20 L0,20 L0,20 L0,10 Z" id="Rectangle-Copy-2" fill="#B3CFFF"></path>
                            <path d="M7,14 L14,14 C14.5522847,14 15,14.4477153 15,15 C15,15.5522847 14.5522847,16 14,16 L7,16 L7,16 L7,14 Z" id="Rectangle-Copy-3" fill="#0062FE"></path>
                        </g>
                    </g>
                </g>
            </g>
        </g>
    </g>
</svg>