<?xml version="1.0" standalone="no"?><!DOCTYPE svg PUBLIC "-//W3C//DTD SVG 1.1//EN" "http://www.w3.org/Graphics/SVG/1.1/DTD/svg11.dtd"><svg t="1589208338981" class="icon" viewBox="0 0 1024 1024" version="1.1" xmlns="http://www.w3.org/2000/svg" p-id="5671" xmlns:xlink="http://www.w3.org/1999/xlink" width="200" height="200"><defs><style type="text/css"></style></defs><path d="M945.230769 88.615385H738.461538v-78.769231A9.846154 9.846154 0 0 0 728.615385 0h-68.923077a9.846154 9.846154 0 0 0-9.846154 9.846154v78.769231h-315.076923v-78.769231A9.846154 9.846154 0 0 0 324.923077 0H256a9.846154 9.846154 0 0 0-9.846154 9.846154v78.769231H39.384615a39.384615 39.384615 0 0 0-39.384615 39.384615V945.230769a39.384615 39.384615 0 0 0 39.384615 39.384616H945.230769a39.384615 39.384615 0 0 0 39.384616-39.384616V128a39.384615 39.384615 0 0 0-39.384616-39.384615z m-49.230769 807.384615H88.615385V428.268308h807.384615v467.731692z m-807.384615-551.384615V177.230769h157.538461V236.307692c0 5.435077 4.411077 9.846154 9.846154 9.846154h68.923077A9.846154 9.846154 0 0 0 334.769231 236.307692v-59.076923h315.076923V236.307692c0 5.435077 4.411077 9.846154 9.846154 9.846154h68.923077A9.846154 9.846154 0 0 0 738.461538 236.307692v-59.076923h157.538462v167.384616H88.615385z" p-id="5672"></path></svg>