<?xml version="1.0" standalone="no"?><!DOCTYPE svg PUBLIC "-//W3C//DTD SVG 1.1//EN" "http://www.w3.org/Graphics/SVG/1.1/DTD/svg11.dtd"><svg t="1589208331770" class="icon" viewBox="0 0 1024 1024" version="1.1" xmlns="http://www.w3.org/2000/svg" p-id="5314" xmlns:xlink="http://www.w3.org/1999/xlink" width="200" height="200"><defs><style type="text/css"></style></defs><path d="M974.506667 92.842667a21.333333 21.333333 0 0 0-21.504-21.333334l-175.786667 0.682667L512 388.266667 247.125333 72.533333 70.997333 71.68A21.162667 21.162667 0 0 0 49.493333 93.013333c0 5.12 1.706667 9.898667 5.12 13.994667l346.794667 413.184L54.613333 933.205333a21.333333 21.333333 0 0 0 16.213334 35.157334l176.298666-0.682667L512 651.946667l264.874667 315.733333 175.786666 0.682667a21.162667 21.162667 0 0 0 21.504-21.333334 22.186667 22.186667 0 0 0-5.12-13.653333l-346.453333-413.184L969.557333 106.666667A21.333333 21.333333 0 0 0 974.506667 92.842667z" p-id="5315"></path></svg>