<?xml version="1.0" standalone="no"?><!DOCTYPE svg PUBLIC "-//W3C//DTD SVG 1.1//EN" "http://www.w3.org/Graphics/SVG/1.1/DTD/svg11.dtd"><svg t="1589208326931" class="icon" viewBox="0 0 1194 1024" version="1.1" xmlns="http://www.w3.org/2000/svg" p-id="5075" xmlns:xlink="http://www.w3.org/1999/xlink" width="233.203125" height="200"><defs><style type="text/css"></style></defs><path d="M605.696 441.344a10.666667 10.666667 0 0 0-16.725333 0l-149.333334 188.928a10.666667 10.666667 0 0 0 8.362667 17.237333h98.56v323.157334c0 5.888 4.778667 10.666667 10.666667 10.666666h79.957333a10.666667 10.666667 0 0 0 10.666667-10.666666V647.594667H746.666667c8.96 0 13.824-10.24 8.362666-17.237334l-149.333333-189.013333z" p-id="5076"></path><path d="M996.522667 318.293333A426.837333 426.837333 0 0 0 597.589333 42.666667a426.666667 426.666667 0 0 0-398.933333 275.456 266.752 266.752 0 0 0 67.84 524.544h53.504a10.666667 10.666667 0 0 0 10.666667-10.666667v-80.042667a10.666667 10.666667 0 0 0-10.666667-10.581333h-53.504a165.290667 165.290667 0 0 1-130.304-267.178667c22.357333-28.501333 53.504-49.152 88.234667-58.368l50.517333-13.141333 18.517333-48.810667a327.509333 327.509333 0 0 1 117.504-151.04 322.816 322.816 0 0 1 186.624-58.965333c67.413333 0 131.84 20.394667 186.709334 58.88a327.68 327.68 0 0 1 117.418666 151.04l18.432 48.725333 50.346667 13.312c72.277333 19.541333 122.88 85.248 122.88 160.170667 0 44.117333-17.237333 85.76-48.469333 116.906667a164.096 164.096 0 0 1-116.736 48.469333h-53.504a10.666667 10.666667 0 0 0-10.666667 10.581333v80.042667c0 5.888 4.778667 10.666667 10.666667 10.666667h53.504a266.581333 266.581333 0 0 0 68.352-524.373334z" p-id="5077"></path></svg>