<?xml version="1.0" standalone="no"?><!DOCTYPE svg PUBLIC "-//W3C//DTD SVG 1.1//EN" "http://www.w3.org/Graphics/SVG/1.1/DTD/svg11.dtd"><svg t="1589208329250" class="icon" viewBox="0 0 1024 1024" version="1.1" xmlns="http://www.w3.org/2000/svg" p-id="5195" xmlns:xlink="http://www.w3.org/1999/xlink" width="200" height="200"><defs><style type="text/css"></style></defs><path d="M694.857143 54.857143a73.142857 73.142857 0 0 1 73.142857 73.142857V219.428571h146.285714a36.571429 36.571429 0 0 1 36.571429 36.571429V292.571429a9.142857 9.142857 0 0 1-9.142857 9.142857h-69.046857l-28.233143 597.723428a73.069714 73.069714 0 0 1-72.996572 69.705143H252.562286a73.142857 73.142857 0 0 1-72.996572-69.705143l-28.233143-597.723428H82.285714A9.142857 9.142857 0 0 1 73.142857 292.571429v-36.571429A36.571429 36.571429 0 0 1 109.714286 219.428571h146.285714V128a73.142857 73.142857 0 0 1 73.142857-73.142857z m95.451428 246.857143h-556.617142l27.648 585.142857h501.321142l27.648-585.142857zM438.857143 365.714286v438.857143H365.714286V365.714286h73.142857z m219.428571 0v438.857143H585.142857V365.714286h73.142857z m27.428572-228.571429h-347.428572V219.428571h347.428572V137.142857z" p-id="5196"></path></svg>