<?xml version="1.0" encoding="UTF-8"?>
<svg width="18px" height="19px" viewBox="0 0 18 19" version="1.1" xmlns="http://www.w3.org/2000/svg" xmlns:xlink="http://www.w3.org/1999/xlink">
    <!-- Generator: Sketch 64 (93537) - https://sketch.com -->
    <title>Group 2</title>
    <desc>Created with Sketch.</desc>
    <g id="基础" stroke="none" stroke-width="1" fill="none" fill-rule="evenodd">
        <g id="按钮" transform="translate(-43.000000, -353.000000)">
            <g id="编组">
                <g id="Group-3-Copy-4" transform="translate(0.000000, 336.000000)">
                    <g id="Group-2" transform="translate(40.000000, 15.000000)">
                        <rect id="Rectangle" x="0" y="0" width="24" height="24"></rect>
                        <g id="Group-4" transform="translate(3.000000, 2.000000)">
                            <rect id="Rectangle" fill="#B3CFFF" x="0" y="0" width="18" height="19"></rect>
                            <path d="M10,5 L18,5 L18,5 L18,7 L10,7 C9.44771525,7 9,6.55228475 9,6 C9,5.44771525 9.44771525,5 10,5 Z" id="Rectangle" fill="#0062FE"></path>
                            <path d="M10,12 L18,12 L18,12 L18,14 L10,14 C9.44771525,14 9,13.5522847 9,13 C9,12.4477153 9.44771525,12 10,12 Z" id="Rectangle-Copy-4" fill="#0062FE"></path>
                        </g>
                    </g>
                </g>
            </g>
        </g>
    </g>
</svg>