<?xml version="1.0" standalone="no"?><!DOCTYPE svg PUBLIC "-//W3C//DTD SVG 1.1//EN" "http://www.w3.org/Graphics/SVG/1.1/DTD/svg11.dtd"><svg t="1589208315610" class="icon" viewBox="0 0 1024 1024" version="1.1" xmlns="http://www.w3.org/2000/svg" p-id="4717" xmlns:xlink="http://www.w3.org/1999/xlink" width="200" height="200"><defs><style type="text/css"></style></defs><path d="M960 512h-64a9.142857 9.142857 0 0 0-9.142857 9.142857v365.714286H137.142857V137.142857h365.714286A9.142857 9.142857 0 0 0 512 128V64A9.142857 9.142857 0 0 0 502.857143 54.857143H91.428571a36.571429 36.571429 0 0 0-36.571428 36.571428v841.142858a36.571429 36.571429 0 0 0 36.571428 36.571428h841.142858a36.571429 36.571429 0 0 0 36.571428-36.571428V521.142857A9.142857 9.142857 0 0 0 960 512z" p-id="4718"></path><path d="M333.531429 538.185143l-2.121143 135.899428a18.285714 18.285714 0 0 0 18.285714 18.505143h0.438857l134.875429-3.364571a9.508571 9.508571 0 0 0 6.217143-2.633143l475.282285-474.258286a9.142857 9.142857 0 0 0 0-12.873143L824.466286 57.490286a9.508571 9.508571 0 0 0-13.019429 0L336.237714 531.748571a9.508571 9.508571 0 0 0-2.633143 6.436572z m72.630857 26.989714l411.794285-410.916571 51.638858 51.565714-412.013715 411.062857-52.224 1.316572 0.804572-53.028572z" p-id="4719"></path></svg>