<?xml version="1.0" standalone="no"?><!DOCTYPE svg PUBLIC "-//W3C//DTD SVG 1.1//EN" "http://www.w3.org/Graphics/SVG/1.1/DTD/svg11.dtd"><svg t="1589208290934" class="icon" viewBox="0 0 1194 1024" version="1.1" xmlns="http://www.w3.org/2000/svg" p-id="3765" xmlns:xlink="http://www.w3.org/1999/xlink" width="233.203125" height="200"><defs><style type="text/css"></style></defs><path d="M1152 42.666667H42.666667A42.666667 42.666667 0 0 0 0 85.333333v853.333334a42.666667 42.666667 0 0 0 42.666667 42.666666h1109.333333a42.666667 42.666667 0 0 0 42.666667-42.666666V85.333333a42.666667 42.666667 0 0 0-42.666667-42.666666z m-53.333333 147.712v694.954666H96V190.378667l-36.778667-28.672 52.394667-67.328 57.088 44.373333h857.429333l57.088-44.373333 52.394667 67.413333-36.949333 28.586667z m-72.533334-51.712L597.333333 471.978667 168.533333 138.666667l-57.088-44.373334-52.394666 67.328 36.778666 28.672 455.509334 354.133334a74.666667 74.666667 0 0 0 91.562666 0l455.765334-354.048 36.778666-28.672-52.394666-67.328-56.917334 44.288z" p-id="3766"></path></svg>