<?xml version="1.0" standalone="no"?><!DOCTYPE svg PUBLIC "-//W3C//DTD SVG 1.1//EN" "http://www.w3.org/Graphics/SVG/1.1/DTD/svg11.dtd"><svg t="1589208297490" class="icon" viewBox="0 0 1024 1024" version="1.1" xmlns="http://www.w3.org/2000/svg" p-id="4003" xmlns:xlink="http://www.w3.org/1999/xlink" width="200" height="200"><defs><style type="text/css"></style></defs><path d="M512 0a512 512 0 0 0-512 512 512 512 0 0 0 512 512 512 512 0 0 0 512-512 512 512 0 0 0-512-512z m32.036571 800.036571a31.963429 31.963429 0 1 1-64 0 31.963429 31.963429 0 1 1 64 0z m0-128a31.963429 31.963429 0 1 1-64 0V223.890286a31.963429 31.963429 0 1 1 64 0v448.073143z" p-id="4004"></path></svg>