<?xml version="1.0" standalone="no"?><!DOCTYPE svg PUBLIC "-//W3C//DTD SVG 1.1//EN" "http://www.w3.org/Graphics/SVG/1.1/DTD/svg11.dtd"><svg t="1589208306157" class="icon" viewBox="0 0 1024 1024" version="1.1" xmlns="http://www.w3.org/2000/svg" p-id="4360" xmlns:xlink="http://www.w3.org/1999/xlink" width="200" height="200"><defs><style type="text/css"></style></defs><path d="M512 0a512 512 0 0 0-512 512 512 512 0 0 0 512 512 512 512 0 0 0 512-512 512 512 0 0 0-512-512z m241.005714 703.268571a32.182857 32.182857 0 0 1 0.512 45.348572 32.182857 32.182857 0 0 1-45.348571 0.512L512 556.763429 315.830857 748.982857a31.963429 31.963429 0 1 1-44.763428-45.787428L466.285714 512l-195.291428-191.268571a32.182857 32.182857 0 0 1-0.585143-45.348572 32.182857 32.182857 0 0 1 45.348571-0.512L512 467.236571 708.169143 275.017143a31.963429 31.963429 0 1 1 44.763428 45.787428L557.714286 512l195.291428 191.268571z" p-id="4361"></path></svg>