<?xml version="1.0" standalone="no"?><!DOCTYPE svg PUBLIC "-//W3C//DTD SVG 1.1//EN" "http://www.w3.org/Graphics/SVG/1.1/DTD/svg11.dtd"><svg t="1589208249875" class="icon" viewBox="0 0 1024 1024" version="1.1" xmlns="http://www.w3.org/2000/svg" p-id="3527" xmlns:xlink="http://www.w3.org/1999/xlink" width="200" height="200"><defs><style type="text/css"></style></defs><path d="M786.285714 685.714286c-32.548571 0-62.610286 11.410286-86.162285 30.500571L463.286857 544.914286a183.588571 183.588571 0 0 0 0-65.828572l236.836572-171.300571a137.216 137.216 0 0 0 223.305142-106.642286c0-75.629714-61.44-137.142857-137.142857-137.142857A137.216 137.216 0 0 0 654.482286 239.177143L429.568 402.066286a182.857143 182.857143 0 1 0 0 219.867428l224.914286 162.889143a137.216 137.216 0 0 0 131.803428 175.177143c75.629714 0 137.142857-61.44 137.142857-137.142857 0-75.629714-61.44-137.142857-137.142857-137.142857z m0-544.036572a59.465143 59.465143 0 1 1 0 118.930286 59.465143 59.465143 0 0 1 0-118.930286zM283.428571 612.571429A100.717714 100.717714 0 0 1 182.857143 512c0-55.442286 45.129143-100.571429 100.571428-100.571429S384 456.557714 384 512s-45.129143 100.571429-100.571429 100.571429z m502.857143 269.750857a59.465143 59.465143 0 1 1 0-118.930286 59.465143 59.465143 0 0 1 0 118.930286z" p-id="3528"></path></svg>