<?xml version="1.0" standalone="no"?><!DOCTYPE svg PUBLIC "-//W3C//DTD SVG 1.1//EN" "http://www.w3.org/Graphics/SVG/1.1/DTD/svg11.dtd"><svg t="1589208302987" class="icon" viewBox="0 0 1102 1024" version="1.1" xmlns="http://www.w3.org/2000/svg" p-id="4241" xmlns:xlink="http://www.w3.org/1999/xlink" width="215.234375" height="200"><defs><style type="text/css"></style></defs><path d="M1038.966154 355.800615l-312.556308-45.371077L586.673231 27.175385a39.542154 39.542154 0 0 0-70.656 0L376.438154 310.429538l-312.477539 45.371077a39.384615 39.384615 0 0 0-21.819077 67.190154l226.067693 220.475077-53.326769 311.217231a39.384615 39.384615 0 0 0 57.107692 41.511385L551.384615 849.132308l279.473231 146.983384a39.384615 39.384615 0 0 0 57.107692-41.511384l-53.405538-311.217231 226.067692-220.475077a39.384615 39.384615 0 0 0-21.740307-67.190154zM739.328 612.430769l44.504615 258.835693L551.384615 749.095385l-232.526769 122.249846 44.425846-258.835693-188.022154-183.453538 259.938462-37.809231L551.384615 155.963077l116.184616 235.441231 259.938461 37.80923-188.100923 183.217231z" p-id="4242"></path></svg>