<?xml version="1.0" standalone="no"?><!DOCTYPE svg PUBLIC "-//W3C//DTD SVG 1.1//EN" "http://www.w3.org/Graphics/SVG/1.1/DTD/svg11.dtd"><svg t="1589208294508" class="icon" viewBox="0 0 1024 1024" version="1.1" xmlns="http://www.w3.org/2000/svg" p-id="3884" xmlns:xlink="http://www.w3.org/1999/xlink" width="200" height="200"><defs><style type="text/css"></style></defs><path d="M979.382857 917.723429l-166.765714-166.838858a434.029714 434.029714 0 0 0-29.769143-581.778285c-169.106286-169.252571-443.904-169.252571-613.668571 0-169.325714 169.837714-169.325714 444.635429 0 613.741714a434.029714 434.029714 0 0 0 581.705142 29.696l166.765715 166.912c3.657143 3.145143 9.508571 3.145143 12.653714 0l49.152-49.152c3.145143-3.072 3.145143-8.923429 0-12.580571zM722.358857 722.285714a347.574857 347.574857 0 0 1-491.446857-491.446857 347.574857 347.574857 0 0 1 491.446857 491.446857z" p-id="3885"></path></svg>